/* XPM */
static char * E:\Development\OctoPrint\OctoPrint\src\octoprint\static\img\tentacle_icon_xpm[] = {
"76 76 81 1",
" 	c None",
".	c #13C100",
"+	c #12C100",
"@	c #13C300",
"#	c #13C200",
"$	c #13C000",
"%	c #14C100",
"&	c #13BC00",
"*	c #14B800",
"=	c #13B600",
"-	c #15A700",
";	c #15A300",
">	c #15A100",
",	c #14A400",
"'	c #15A400",
")	c #14AA00",
"!	c #14AE00",
"~	c #14B500",
"{	c #13BE00",
"]	c #12C300",
"^	c #13C400",
"/	c #14BB00",
"(	c #159E00",
"_	c #169500",
":	c #169100",
"<	c #169400",
"[	c #169200",
"}	c #169300",
"|	c #169700",
"1	c #14B100",
"2	c #15AB00",
"3	c #169600",
"4	c #169C00",
"5	c #169D00",
"6	c #179300",
"7	c #169000",
"8	c #169800",
"9	c #15AC00",
"0	c #14C200",
"a	c #14BE00",
"b	c #14B700",
"c	c #15AF00",
"d	c #16A300",
"e	c #179100",
"f	c #15A800",
"g	c #14BD00",
"h	c #14B200",
"i	c #159700",
"j	c #159F00",
"k	c #14B000",
"l	c #159200",
"m	c #13BB00",
"n	c #14B300",
"o	c #14B600",
"p	c #14A900",
"q	c #14AB00",
"r	c #169900",
"s	c #159C00",
"t	c #14AC00",
"u	c #15A000",
"v	c #159300",
"w	c #15A200",
"x	c #13BF00",
"y	c #14BA00",
"z	c #169A00",
"A	c #13BD00",
"B	c #15A600",
"C	c #16A100",
"D	c #13BA00",
"E	c #159400",
"F	c #15B500",
"G	c #14AF00",
"H	c #13AF00",
"I	c #15A900",
"J	c #15A500",
"K	c #159D00",
"L	c #13B500",
"M	c #17BF04",
"N	c #15C002",
"O	c #169F00",
"P	c #15AD00",
"                                                                            ",
"                                                                            ",
"                                                                            ",
"                                                                            ",
"                                                                            ",
"                                     ..+@.##                                ",
"                               .$.#.......#..#..#                           ",
"                            ...#.#..................%                       ",
"                         ..........................#.#%#                    ",
"                       #..............................#.##                  ",
"                     .......................................                ",
"                   .#.......................................#.              ",
"                  ..........................................##.             ",
"                #...............................................            ",
"               ...........................##.#..#.#@##..........#           ",
"              ........................@$.&*=-;>,;')!~{$@.#......##]         ",
"            ......................#.^/*;(_:<:[}[[[}:}|;1$.@......###        ",
"           #....................#.#~23_:[}}}}}}}}}}}}[}:4;{##........       ",
"          #....................^&!56[}}}}}}}}}}}}}}}}}}}}789*@......#0      ",
"          ...................#ab8<[}}}}}}}}}}}}}}}}}}}}}}}[<3c^.#.....      ",
"         ...................@~d_:}}}}}}}}}}}}}}}<}}}}}}}}}}}}efg.#.....     ",
"        ...................^hi}[}}}}}}}}}}}}}}}}}}}}}}<}}}}}}}:j~.#.....    ",
"       +..................^k[}}}}}}}}}}}}<}l         }}<}}}}}}}[jm....##    ",
"       ..................@n[}}}}}}}}}}}}                 }}}}}}}:'@#.....   ",
"      ..................@o_}}}}}}}}}}<                     _<}}}}7-@#....   ",
"     @.................@*8}}}}}}}}}}                          <}<<7p@#..#.  ",
"     #................#&j}}}}}}}}}}                            [<}}<q##...  ",
"     ..................13[}}}}}}}}                               }}}rb...#  ",
"     ................#.s:}}}}}}}}                                 <}[t^...# ",
"    .................#u7}}}}}}}}                                    }[~@... ",
"    .................h}}}}}}}}}}                                     vwx#.% ",
"    ................]t}}}}}}}}<                                       3y@.# ",
"   #...............#m_[}}}}}}}<                                        zA@. ",
"   #...............#=_}}}}}}}}}                                         Bx# ",
"   #...............#u:}}}}}}}}                                          C$# ",
"   #...............D|}}}}}}}}}                                           o# ",
"   ...............@1[}}}}}}}}}                                            . ",
"  0...............#f}}}}}}}}}}                                              ",
"  .................j[}}}}}}}}}E                                             ",
"  %...............$s}}}}}}}}}}<                                             ",
"  #.............../[}}}}}}}}}}}                                             ",
"  ...............#&<}}}}}}}}}}}                                             ",
"  ...............#F[}}}}}}}}}}}}                                            ",
"  %..............#G:}}}}}}}}}}}}                                            ",
"  ...............#H[}}}}}}}}}}}}<                                           ",
"  ...............#~<}}}}}}}}}}}<E                                           ",
"  #..............#b[<}}}}}}}}}}}}                                           ",
"  ...............#*7}}}}}}}}}}}}}}                                          ",
"  #...............g_}}}}}}}}}}}}}<                                          ",
"  ...............#$_}}}}}}}}}}}}}}}                                         ",
"  %...............{}}}}}}}}}}}}}}}}                                         ",
"  #...............#>}}}}}}}}}}}}}}}<                                        ",
"  ##..............#I:}}}}}}}}}}}}}}}                                        ",
"  $...............#D<}}}}}}}}}}}}}}}6                                       ",
"   ...............#{|[}}}}}}}}}}}}}}}                                       ",
"   #................J}}}}}}}}}}}}}}}}<                                      ",
"   #...............@G[}}}}}}}}}}}}}}}}                                      ",
"   ##..............#*_}}}}}}}}}}}}}}}}                                      ",
"   %...............#.K[}}}}}}}}}}}}}}}}                                     ",
"   ..................;}}}}}}}}}}}}}}}}}                                     ",
"    ................@L}}}}}}}}}}}}}}}}}                                     ",
"    #..............#.m<}}}}}}}}}}}}}}}}<                                    ",
"    #.............MN.^;[}}}}}}}}}}}}}}}}                                    ",
"    #.................9:}}}}}}}}}}}}}}}}<                                   ",
"    #................@A_}}}}}}}}}}}}}}}}}                                   ",
"     .................&}}}}}}}}}}}}}}}}}}                                   ",
"     .#................O}}}}}}}}}}}}}}}}<v                                  ",
"     ##...............#J:}}}}}}}}}}}}}}}}}                                  ",
"     .................#P:}}}}}}}}}}}}}}}}}                                  ",
"      #...............@y_}}}}}}}}}}}}}}}}}<                                 ",
"      #................y_}}}}}}}}}}}}}}}}}}                                 ",
"      .#...............$K}}}}}}}}}}}}}}}}}<                                 ",
"      +#..............#.K[}}}}}}}}}}}}}}}}}                                 ",
"                                                                            ",
"                                                                            ",
"                                                                            "};
